<?xml version="1.0" encoding="us-ascii" standalone="no"?><svg xmlns="http://www.w3.org/2000/svg" xmlns:xlink="http://www.w3.org/1999/xlink" contentStyleType="text/css" height="753px" preserveAspectRatio="none" style="width:734px;height:753px;background:#FFFFFF;" version="1.1" viewBox="0 0 734 753" width="734px" zoomAndPan="magnify"><defs/><g><!--cluster csTimer--><g id="cluster_csTimer"><rect fill="none" height="740.54" rx="2.5" ry="2.5" style="stroke:#181818;stroke-width:1.0;" width="659" x="7" y="7"/><text fill="#000000" font-family="sans-serif" font-size="14" font-weight="bold" lengthAdjust="spacing" textLength="54" x="309.5" y="23.9659">csTimer</text></g><!--cluster scramble_333_edit--><g id="cluster_scramble_333_edit"><path d="M33.5,442.4 L160.5,442.4 A3.75,3.75 0 0 1 163,444.9 L170,467.4679 L639.5,467.4679 A2.5,2.5 0 0 1 642,469.9679 L642,721.04 A2.5,2.5 0 0 1 639.5,723.54 L33.5,723.54 A2.5,2.5 0 0 1 31,721.04 L31,444.9 A2.5,2.5 0 0 1 33.5,442.4 " fill="none" style="stroke:#000000;stroke-width:1.5;"/><line style="stroke:#000000;stroke-width:1.5;" x1="31" x2="170" y1="467.4679" y2="467.4679"/><text fill="#000000" font-family="sans-serif" font-size="14" font-weight="bold" lengthAdjust="spacing" textLength="126" x="35" y="459.3659">scramble_333_edit</text></g><!--cluster js--><g id="cluster_js"><rect fill="none" height="211.14" rx="2.5" ry="2.5" style="stroke:#181818;stroke-width:1.0;" width="563" x="55" y="488.4"/><text fill="#000000" font-family="sans-serif" font-size="14" font-weight="bold" lengthAdjust="spacing" textLength="141" x="266" y="505.3659">scramble_333_edit.js</text></g><!--entity UI--><g id="elem_UI"><rect fill="#F1F1F1" height="58.1358" rx="2.5" ry="2.5" style="stroke:#181818;stroke-width:0.5;" width="167" x="161.5" y="182.13"/><text fill="#000000" font-family="sans-serif" font-size="14" lengthAdjust="spacing" textLength="15" x="171.5" y="207.0959">UI</text><text fill="#000000" font-family="sans-serif" font-size="14" lengthAdjust="spacing" textLength="147" x="171.5" y="226.1639">(Drop-down selectors)</text></g><!--entity scrMgr--><g id="elem_scrMgr"><rect fill="#F1F1F1" height="58.1358" rx="2.5" ry="2.5" style="stroke:#181818;stroke-width:0.5;" width="166" x="162" y="319.27"/><text fill="#000000" font-family="sans-serif" font-size="14" lengthAdjust="spacing" textLength="48" x="172" y="344.2359">scrMgr</text><text fill="#000000" font-family="sans-serif" font-size="14" lengthAdjust="spacing" textLength="146" x="172" y="363.3039">(scramble dispatcher)</text></g><!--entity Mathlib--><g id="elem_Mathlib"><rect fill="#F1F1F1" height="58.1358" rx="2.5" ry="2.5" style="stroke:#181818;stroke-width:0.5;" width="147" x="273.5" y="45"/><text fill="#000000" font-family="sans-serif" font-size="14" lengthAdjust="spacing" textLength="67" x="283.5" y="69.9659">mathlib.js</text><text fill="#000000" font-family="sans-serif" font-size="14" lengthAdjust="spacing" textLength="127" x="283.5" y="89.0339">(min2phase solver)</text></g><!--entity Cat--><g id="elem_Cat"><rect fill="#F1F1F1" height="39.0679" rx="2.5" ry="2.5" style="stroke:#181818;stroke-width:0.5;" width="161" x="77.5" y="526.4"/><text fill="#000000" font-family="sans-serif" font-size="14" lengthAdjust="spacing" textLength="141" x="87.5" y="551.3659">make3BLDCat(catIdx)</text></g><!--entity Multi--><g id="elem_Multi"><rect fill="#F1F1F1" height="39.0679" rx="2.5" ry="2.5" style="stroke:#181818;stroke-width:0.5;" width="209" x="273.5" y="526.4"/><text fill="#000000" font-family="sans-serif" font-size="14" lengthAdjust="spacing" textLength="189" x="283.5" y="551.3659">make3BLDMultiCycle(catIdx)</text></g><!--entity Data--><g id="elem_Data"><rect fill="#F1F1F1" height="39.0679" rx="2.5" ry="2.5" style="stroke:#181818;stroke-width:0.5;" width="119" x="137.5" y="644.47"/><text fill="#000000" font-family="sans-serif" font-size="14" lengthAdjust="spacing" textLength="99" x="147.5" y="669.4359">bld3cByCat&lt;8&gt;</text></g><!--entity GAS--><g id="elem_GAS"><rect fill="#F1F1F1" height="39.0679" rx="2.5" ry="2.5" style="stroke:#181818;stroke-width:0.5;" width="177" x="383.5" y="644.47"/><text fill="#000000" font-family="sans-serif" font-size="14" lengthAdjust="spacing" textLength="157" x="393.5" y="669.4359">getAnyScramble(cp, co)</text></g><!--link UI to scrMgr--><g id="link_UI_scrMgr"><path d="M245,240.53 C245,261.52 245,290.24 245,312.62 " fill="none" id="UI-to-scrMgr" style="stroke:#181818;stroke-width:1.0;"/><polygon fill="#181818" points="245,317.53,249,308.53,245,312.53,241,308.53,245,317.53" style="stroke:#181818;stroke-width:1.0;"/><text fill="#000000" font-family="sans-serif" font-size="13" lengthAdjust="spacing" textLength="157" x="246" y="285.167">key "3bldc{i}" / "3bldmc{i}"</text></g><!--link scrMgr to Cat--><g id="link_scrMgr_Cat"><path d="M189.74,377.79 C179.09,385.88 169.3,395.74 163,407.4 C143.88,442.77 147.74,491.07 152.62,520.02 " fill="none" id="scrMgr-to-Cat" style="stroke:#181818;stroke-width:1.0;"/><polygon fill="#181818" points="153.47,524.75,155.8102,515.1832,152.5831,519.8293,147.9371,516.6022,153.47,524.75" style="stroke:#181818;stroke-width:1.0;"/><text fill="#000000" font-family="sans-serif" font-size="13" lengthAdjust="spacing" textLength="123" x="164" y="422.297">registered scrambler</text></g><!--link scrMgr to Multi--><g id="link_scrMgr_Multi"><path d="M269.14,377.74 C276.7,387.01 284.92,397.48 292,407.4 C319.44,445.88 347.86,493.01 364.19,520.92 " fill="none" id="scrMgr-to-Multi" style="stroke:#181818;stroke-width:1.0;"/><polygon fill="#181818" points="366.52,524.93,365.4343,515.1412,363.998,520.6127,358.5265,519.1764,366.52,524.93" style="stroke:#181818;stroke-width:1.0;"/><text fill="#000000" font-family="sans-serif" font-size="13" lengthAdjust="spacing" textLength="123" x="305.58" y="422.297">registered scrambler</text></g><!--link Cat to Data--><g id="link_Cat_Data"><path d="M126.02,565.97 C108.49,578.95 92.3,596.91 103,614.47 C109.81,625.66 120.13,634.38 131.46,641.14 " fill="none" id="Cat-to-Data" style="stroke:#181818;stroke-width:1.0;"/><polygon fill="#181818" points="135.78,643.57,129.9055,635.6649,131.4248,641.1139,125.9758,642.6333,135.78,643.57" style="stroke:#181818;stroke-width:1.0;"/><text fill="#000000" font-family="sans-serif" font-size="13" lengthAdjust="spacing" textLength="107" x="104" y="610.367">read random case</text></g><!--link Multi to Data--><g id="link_Multi_Data"><path d="M313.06,565.85 C293.38,573.3 272.39,583.09 255,595.47 C238.4,607.28 223.52,624.84 212.99,639.09 " fill="none" id="Multi-to-Data" style="stroke:#181818;stroke-width:1.0;"/><polygon fill="#181818" points="210.2,642.94,218.7191,637.9979,213.1332,638.8908,212.2404,633.3048,210.2,642.94" style="stroke:#181818;stroke-width:1.0;"/><text fill="#000000" font-family="sans-serif" font-size="13" lengthAdjust="spacing" textLength="168" x="256" y="610.367">filter non-overlapping cycles</text></g><!--link Cat to GAS--><g id="link_Cat_GAS"><path d="M184.59,565.97 C195.12,574.29 206.87,584.62 216,595.47 C222.28,602.94 219.06,608.8 227,614.47 C250.99,631.63 318.67,644.26 376.83,652.32 " fill="none" id="Cat-to-GAS" style="stroke:#181818;stroke-width:1.0;"/><polygon fill="#181818" points="381.65,652.98,373.283,647.7845,376.6972,652.2949,372.1868,655.7091,381.65,652.98" style="stroke:#181818;stroke-width:1.0;"/></g><!--link Multi to GAS--><g id="link_Multi_GAS"><path d="M402.88,565.94 C412.93,574.34 424.21,584.73 433,595.47 C443.8,608.68 453.42,625.24 460.4,638.66 " fill="none" id="Multi-to-GAS" style="stroke:#181818;stroke-width:1.0;"/><polygon fill="#181818" points="462.54,642.85,461.9924,633.0164,460.2584,638.4009,454.8739,636.6669,462.54,642.85" style="stroke:#181818;stroke-width:1.0;"/><text fill="#000000" font-family="sans-serif" font-size="13" lengthAdjust="spacing" textLength="128" x="446.48" y="610.367">composed cube state</text></g><!--link GAS to Mathlib--><g id="link_GAS_Mathlib"><path d="M547.62,644.04 C561.61,637.05 574.48,627.5 583,614.47 C587.62,607.41 584.22,603.83 583,595.47 C575.25,542.42 478,175.39 445,133.13 C437.15,123.09 427.05,114.42 416.32,107.07 " fill="none" id="GAS-to-Mathlib" style="stroke:#181818;stroke-width:1.0;"/><polygon fill="#181818" points="412.27,104.4,417.5856,112.6912,416.4455,107.1504,421.9863,106.0104,412.27,104.4" style="stroke:#181818;stroke-width:1.0;"/><text fill="#000000" font-family="sans-serif" font-size="13" lengthAdjust="spacing" textLength="198" x="528.6" y="353.737">corner permutation + orientation</text></g><!--link Mathlib to UI--><g id="link_Mathlib_UI"><path d="M273.25,102.42 C260.77,110.4 249.46,120.48 242,133.13 C234.63,145.64 234.04,161.37 235.81,175.35 " fill="none" id="Mathlib-to-UI" style="stroke:#181818;stroke-width:1.0;"/><polygon fill="#181818" points="236.54,180.14,239.1312,170.6381,235.7829,175.1976,231.2234,171.8494,236.54,180.14" style="stroke:#181818;stroke-width:1.0;"/><text fill="#000000" font-family="sans-serif" font-size="13" lengthAdjust="spacing" textLength="197" x="243" y="148.027">move sequence (scramble string)</text></g><!--SRC=[VP9DImCn48Rl-HN3dbgq2kv5H0HjGHRigVOcI9eTjx7vCadLHVhVdKswjlLhJvdD-xppaGahQHptN8Emsbc39ivYgn0yYiXDev2nhoCK8jnBZRw03mRqVJ5GpAi7CvXuwqQrVJCGK15bVHWMm0FCg-_w8FoqySJGWUi5cTSoE1x54drcik8xftbSAhauUGx4QcdEt987X63LQmzEiuGbTA_uFjDZMPQFMCj89dqdFxAiiBovcunv70WUg_ezMrFydtowLb6EMw7mW4g_V-CMgYx5JKkkb-TNIJhXaV-cR31UctQsxM0Wt37TPlVRwraYDcp3sBo2qUXgEpkuW1MsK9IKHtp8JG6dET0fObjL1r09P751usfaYEYnXdvSVb-NMlbBbqqwMTV6re_NuBcfBMqOFHJB1WUQ9wd82Omr8qkFgBXpqZGWkZc6FTEkqHrE4IGyJIbG8MAze4M8F2BBbwdWl0n9vmsbSUZrcaJI6ZW2woNDDqMibtOOpR7prbGGxVBB6er0sErgY9vA7B9F]--></g></svg>