<?xml version="1.0" encoding="us-ascii" standalone="no"?><svg xmlns="http://www.w3.org/2000/svg" xmlns:xlink="http://www.w3.org/1999/xlink" contentStyleType="text/css" height="534px" preserveAspectRatio="none" style="width:987px;height:534px;background:#FFFFFF;" version="1.1" viewBox="0 0 987 534" width="987px" zoomAndPan="magnify"><defs/><g><line style="stroke:#181818;stroke-width:0.5;stroke-dasharray:5.0,5.0;" x1="28" x2="28" y1="84.0679" y2="450.8341"/><line style="stroke:#181818;stroke-width:0.5;stroke-dasharray:5.0,5.0;" x1="286.5" x2="286.5" y1="84.0679" y2="450.8341"/><line style="stroke:#181818;stroke-width:0.5;stroke-dasharray:5.0,5.0;" x1="495.5" x2="495.5" y1="84.0679" y2="450.8341"/><line style="stroke:#181818;stroke-width:0.5;stroke-dasharray:5.0,5.0;" x1="656" x2="656" y1="84.0679" y2="450.8341"/><line style="stroke:#181818;stroke-width:0.5;stroke-dasharray:5.0,5.0;" x1="820" x2="820" y1="84.0679" y2="450.8341"/><text fill="#000000" font-family="sans-serif" font-size="14" lengthAdjust="spacing" textLength="41" x="5" y="79.9659">Cuber</text><ellipse cx="28.5" cy="13.5" fill="#E2E2F0" rx="8" ry="8" style="stroke:#181818;stroke-width:0.5;"/><path d="M28.5,21.5 L28.5,48.5 M15.5,29.5 L41.5,29.5 M28.5,48.5 L15.5,63.5 M28.5,48.5 L41.5,63.5 " fill="none" style="stroke:#181818;stroke-width:0.5;"/><text fill="#000000" font-family="sans-serif" font-size="14" lengthAdjust="spacing" textLength="41" x="5" y="464.8">Cuber</text><ellipse cx="28.5" cy="477.402" fill="#E2E2F0" rx="8" ry="8" style="stroke:#181818;stroke-width:0.5;"/><path d="M28.5,485.402 L28.5,512.402 M15.5,493.402 L41.5,493.402 M28.5,512.402 L15.5,527.402 M28.5,512.402 L41.5,527.402 " fill="none" style="stroke:#181818;stroke-width:0.5;"/><rect fill="#E2E2F0" height="33.0679" rx="2.5" ry="2.5" style="stroke:#181818;stroke-width:0.5;" width="86" x="243.5" y="50"/><text fill="#000000" font-family="sans-serif" font-size="14" lengthAdjust="spacing" textLength="72" x="250.5" y="71.9659">csTimer UI</text><rect fill="#E2E2F0" height="33.0679" rx="2.5" ry="2.5" style="stroke:#181818;stroke-width:0.5;" width="86" x="243.5" y="449.8341"/><text fill="#000000" font-family="sans-serif" font-size="14" lengthAdjust="spacing" textLength="72" x="250.5" y="471.8">csTimer UI</text><rect fill="#E2E2F0" height="33.0679" rx="2.5" ry="2.5" style="stroke:#181818;stroke-width:0.5;" width="62" x="464.5" y="50"/><text fill="#000000" font-family="sans-serif" font-size="14" lengthAdjust="spacing" textLength="48" x="471.5" y="71.9659">scrMgr</text><rect fill="#E2E2F0" height="33.0679" rx="2.5" ry="2.5" style="stroke:#181818;stroke-width:0.5;" width="62" x="464.5" y="449.8341"/><text fill="#000000" font-family="sans-serif" font-size="14" lengthAdjust="spacing" textLength="48" x="471.5" y="471.8">scrMgr</text><rect fill="#E2E2F0" height="33.0679" rx="2.5" ry="2.5" style="stroke:#181818;stroke-width:0.5;" width="153" x="580" y="50"/><text fill="#000000" font-family="sans-serif" font-size="14" lengthAdjust="spacing" textLength="139" x="587" y="71.9659">scramble_333_edit.js</text><rect fill="#E2E2F0" height="33.0679" rx="2.5" ry="2.5" style="stroke:#181818;stroke-width:0.5;" width="153" x="580" y="449.8341"/><text fill="#000000" font-family="sans-serif" font-size="14" lengthAdjust="spacing" textLength="139" x="587" y="471.8">scramble_333_edit.js</text><rect fill="#E2E2F0" height="52.1358" rx="2.5" ry="2.5" style="stroke:#181818;stroke-width:0.5;" width="97" x="772" y="30.9321"/><text fill="#000000" font-family="sans-serif" font-size="14" lengthAdjust="spacing" textLength="67" x="787" y="52.898">mathlib.js</text><text fill="#000000" font-family="sans-serif" font-size="14" lengthAdjust="spacing" textLength="83" x="779" y="71.9659">(min2phase)</text><rect fill="#E2E2F0" height="52.1358" rx="2.5" ry="2.5" style="stroke:#181818;stroke-width:0.5;" width="97" x="772" y="449.8341"/><text fill="#000000" font-family="sans-serif" font-size="14" lengthAdjust="spacing" textLength="67" x="787" y="471.8">mathlib.js</text><text fill="#000000" font-family="sans-serif" font-size="14" lengthAdjust="spacing" textLength="83" x="779" y="490.868">(min2phase)</text><polygon fill="#181818" points="274.5,113.7739,284.5,117.7739,274.5,121.7739,278.5,117.7739" style="stroke:#181818;stroke-width:1.0;"/><line style="stroke:#181818;stroke-width:1.0;" x1="28.5" x2="280.5" y1="117.7739" y2="117.7739"/><text fill="#000000" font-family="sans-serif" font-size="13" lengthAdjust="spacing" textLength="234" x="35.5" y="111.9649">select "3BLD" + category in drop-downs</text><polygon fill="#181818" points="483.5,145.4799,493.5,149.4799,483.5,153.4799,487.5,149.4799" style="stroke:#181818;stroke-width:1.0;"/><line style="stroke:#181818;stroke-width:1.0;" x1="286.5" x2="489.5" y1="149.4799" y2="149.4799"/><text fill="#000000" font-family="sans-serif" font-size="13" lengthAdjust="spacing" textLength="185" x="293.5" y="143.6709">trigger scrambler key "3bldc{i}"</text><polygon fill="#181818" points="644.5,177.186,654.5,181.186,644.5,185.186,648.5,181.186" style="stroke:#181818;stroke-width:1.0;"/><line style="stroke:#181818;stroke-width:1.0;" x1="495.5" x2="650.5" y1="181.186" y2="181.186"/><text fill="#000000" font-family="sans-serif" font-size="13" lengthAdjust="spacing" textLength="137" x="502.5" y="175.377">make3BLDCat(catIdx)()</text><line style="stroke:#181818;stroke-width:1.0;" x1="656.5" x2="698.5" y1="230.598" y2="230.598"/><line style="stroke:#181818;stroke-width:1.0;" x1="698.5" x2="698.5" y1="230.598" y2="243.598"/><line style="stroke:#181818;stroke-width:1.0;" x1="657.5" x2="698.5" y1="243.598" y2="243.598"/><polygon fill="#181818" points="667.5,239.598,657.5,243.598,667.5,247.598,663.5,243.598" style="stroke:#181818;stroke-width:1.0;"/><text fill="#000000" font-family="sans-serif" font-size="13" lengthAdjust="spacing" textLength="120" x="663.5" y="207.083">pick random [cp, co]</text><text fill="#000000" font-family="sans-serif" font-size="13" lengthAdjust="spacing" textLength="144" x="663.5" y="224.789">from bld3cByCat[catIdx]</text><polygon fill="#181818" points="808.5,271.304,818.5,275.304,808.5,279.304,812.5,275.304" style="stroke:#181818;stroke-width:1.0;"/><line style="stroke:#181818;stroke-width:1.0;" x1="656.5" x2="814.5" y1="275.304" y2="275.304"/><text fill="#000000" font-family="sans-serif" font-size="13" lengthAdjust="spacing" textLength="140" x="663.5" y="269.495">getAnyScramble(cp, co)</text><line style="stroke:#181818;stroke-width:1.0;" x1="820.5" x2="862.5" y1="324.716" y2="324.716"/><line style="stroke:#181818;stroke-width:1.0;" x1="862.5" x2="862.5" y1="324.716" y2="337.716"/><line style="stroke:#181818;stroke-width:1.0;" x1="821.5" x2="862.5" y1="337.716" y2="337.716"/><polygon fill="#181818" points="831.5,333.716,821.5,337.716,831.5,341.716,827.5,337.716" style="stroke:#181818;stroke-width:1.0;"/><text fill="#000000" font-family="sans-serif" font-size="13" lengthAdjust="spacing" textLength="153" x="827.5" y="301.201">solve corner constellation</text><text fill="#000000" font-family="sans-serif" font-size="13" lengthAdjust="spacing" textLength="107" x="827.5" y="318.907">via pruning tables</text><polygon fill="#181818" points="667.5,365.4221,657.5,369.4221,667.5,373.4221,663.5,369.4221" style="stroke:#181818;stroke-width:1.0;"/><line style="stroke:#181818;stroke-width:1.0;stroke-dasharray:2.0,2.0;" x1="661.5" x2="819.5" y1="369.4221" y2="369.4221"/><text fill="#000000" font-family="sans-serif" font-size="13" lengthAdjust="spacing" textLength="94" x="673.5" y="363.6131">move sequence</text><polygon fill="#181818" points="297.5,397.1281,287.5,401.1281,297.5,405.1281,293.5,401.1281" style="stroke:#181818;stroke-width:1.0;"/><line style="stroke:#181818;stroke-width:1.0;stroke-dasharray:2.0,2.0;" x1="291.5" x2="655.5" y1="401.1281" y2="401.1281"/><text fill="#000000" font-family="sans-serif" font-size="13" lengthAdjust="spacing" textLength="92" x="303.5" y="395.3191">scramble string</text><polygon fill="#181818" points="39.5,428.8341,29.5,432.8341,39.5,436.8341,35.5,432.8341" style="stroke:#181818;stroke-width:1.0;"/><line style="stroke:#181818;stroke-width:1.0;stroke-dasharray:2.0,2.0;" x1="33.5" x2="285.5" y1="432.8341" y2="432.8341"/><text fill="#000000" font-family="sans-serif" font-size="13" lengthAdjust="spacing" textLength="99" x="45.5" y="427.0251">display scramble</text><!--SRC=[PP0nJyCm58Ht_ugdJ8cW36JhW4HXgGHJwTHMbUCyKbFdsTXE8KByTrxSq58nHSvzTpwVLD5wUEWgz203T06zSD97hRIJ525JuKMtB2xdsG0ivvToKFwvyKdYxpzDjfN1RLcMMwnrl7aBYLpmZqkqbN5dTCN0cl9MqwtRoO35CPSr8OPcCBdZ0W0mXO065HlBsTDZ1bUWPCJ6-XuqGUsjczJsWu98DBkus-2ANZSDv_msyx37daCgKwil_Ps9n34_D6I-bNiSRdYGCUSRvlLdaHT29FLCEQtsu2NLjeMLSjUWx6PDhvwF75ogMS_-rT6_EPc7Px6vmNXF_M8ib1_jXKZgcGhM7905JznPMGeHZP5HMrhJGKjmlYDD3KJ98M5q_tc7PNV0zmv9uTXWt79w6WC2pqFDk1dBQV8fr3eu8_iJ9tu0]--></g></svg>