<?xml version="1.0" encoding="us-ascii" standalone="no"?><svg xmlns="http://www.w3.org/2000/svg" xmlns:xlink="http://www.w3.org/1999/xlink" contentStyleType="text/css" height="364px" preserveAspectRatio="none" style="width:682px;height:364px;background:#FFFFFF;" version="1.1" viewBox="0 0 682 364" width="682px" zoomAndPan="magnify"><defs/><g><!--cluster csTimer--><g id="cluster_csTimer"><rect fill="none" height="350" rx="2.5" ry="2.5" style="stroke:#181818;stroke-width:1.0;" width="543.48" x="133" y="7"/><text fill="#000000" font-family="sans-serif" font-size="14" font-weight="bold" lengthAdjust="spacing" textLength="54" x="377.74" y="23.9659">csTimer</text></g><!--cluster 3BLD Corner Trainer--><g id="cluster_3BLD Corner Trainer"><rect fill="none" height="280" rx="2.5" ry="2.5" style="stroke:#181818;stroke-width:1.0;" width="495.48" x="157" y="53"/><text fill="#000000" font-family="sans-serif" font-size="14" font-weight="bold" lengthAdjust="spacing" textLength="139" x="335.24" y="69.9659">3BLD Corner Trainer</text></g><g id="elem_UC1"><ellipse cx="268.3604" cy="120.9961" fill="#F1F1F1" rx="78.6604" ry="29.9661" style="stroke:#181818;stroke-width:0.5;"/><text fill="#000000" font-family="sans-serif" font-size="14" lengthAdjust="spacing" textLength="78" x="229.3604" y="114.8941">Select 3BLD</text><text fill="#000000" font-family="sans-serif" font-size="14" lengthAdjust="spacing" textLength="95" x="220.8604" y="133.962">scramble type</text></g><g id="elem_UC2"><ellipse cx="552.1048" cy="244.9952" fill="#F1F1F1" rx="84.3848" ry="30.2252" style="stroke:#181818;stroke-width:0.5;"/><text fill="#000000" font-family="sans-serif" font-size="14" lengthAdjust="spacing" textLength="102" x="498.1048" y="240.1942">Select category</text><text fill="#000000" font-family="sans-serif" font-size="14" lengthAdjust="spacing" textLength="29" x="534.6048" y="259.2622">(0-7)</text></g><g id="elem_UC5"><ellipse cx="268.3557" cy="216.0028" fill="#F1F1F1" rx="95.3557" ry="30.3028" style="stroke:#181818;stroke-width:0.5;"/><text fill="#000000" font-family="sans-serif" font-size="14" lengthAdjust="spacing" textLength="117" x="206.8557" y="211.2018">Receive scramble</text><text fill="#000000" font-family="sans-serif" font-size="14" lengthAdjust="spacing" textLength="65" x="232.8557" y="230.2697">sequence</text></g><g id="elem_UC6"><ellipse cx="268.3618" cy="299.0024" fill="#F1F1F1" rx="77.0618" ry="17.8124" style="stroke:#181818;stroke-width:0.5;"/><text fill="#000000" font-family="sans-serif" font-size="14" lengthAdjust="spacing" textLength="95" x="217.8618" y="303.7353">Solve the case</text></g><!--entity cuber--><g id="elem_cuber"><ellipse cx="46" cy="275.47" fill="#F1F1F1" rx="16" ry="16" style="stroke:#181818;stroke-width:1.5;"/><path d="M46,295.47 C50,295.47 53,295.47 57,291.47 C65,291.47 73,299.47 73,307.47 L73,311.47 C73,315.47 69,319.47 65,319.47 L27,319.47 C23,319.47 19,315.47 19,311.47 L19,307.47 C19,299.47 27,291.47 35,291.47 C39,295.47 42,295.47 46,295.47 " fill="#F1F1F1" style="stroke:#181818;stroke-width:1.5;"/><text fill="#000000" font-family="sans-serif" font-size="14" lengthAdjust="spacing" textLength="80" x="6" y="335.9359">3BLD-Cuber</text></g><!--link cuber to UC1--><g id="link_cuber_UC1"><path d="M62.46,257.59 C75.19,228.73 95.89,191.36 125,168 C143.82,152.9 167.68,142.57 190.46,135.54 " fill="none" id="cuber-to-UC1" style="stroke:#181818;stroke-width:1.0;"/><polygon fill="#181818" points="195.09,134.16,185.3219,132.9014,190.2989,135.5902,187.6102,140.5672,195.09,134.16" style="stroke:#181818;stroke-width:1.0;"/></g><!--link cuber to UC2--><g id="link_cuber_UC2"><path d="M86.38,320.54 C98.42,326.05 111.94,331.2 125,334 C228.74,356.21 260.21,357.33 363.71,334 C414.44,322.56 467.56,295.71 504.23,274.48 " fill="none" id="cuber-to-UC2" style="stroke:#181818;stroke-width:1.0;"/><polygon fill="#181818" points="508.22,272.15,498.4301,273.2257,503.9001,274.6676,502.4582,280.1376,508.22,272.15" style="stroke:#181818;stroke-width:1.0;"/></g><!--link cuber to UC6--><g id="link_cuber_UC6"><path d="M86.4,299 C113.67,299 150.97,299 184.62,299 " fill="none" id="cuber-to-UC6" style="stroke:#181818;stroke-width:1.0;"/><polygon fill="#181818" points="189.35,299,180.35,295,184.35,299,180.35,303,189.35,299" style="stroke:#181818;stroke-width:1.0;"/></g><!--link UC1 to UC2--><g id="link_UC1_UC2"><path d="M320.7,143.6 C369,164.85 441.26,196.66 491.95,218.97 " fill="none" id="UC1-to-UC2" style="stroke:#181818;stroke-width:1.0;stroke-dasharray:7.0,7.0;"/><polygon fill="#181818" points="496.32,220.89,489.6969,213.6006,491.7445,218.8739,486.4712,220.9215,496.32,220.89" style="stroke:#181818;stroke-width:1.0;"/><text fill="#000000" font-family="sans-serif" font-size="13" lengthAdjust="spacing" textLength="42" x="394.71" y="175.177">&#171;then&#187;</text></g><!--SRC=[TP0nJmCn38Lt_mghIs6u5eeu95JTq6DaecNhahhc6ZMNb2G7Eg7-Tvnm5I2AfpZ-tdjEmbxRW_AgHKNH-MNi3QDwv-1Q1iCl4QD3hvjTnAtsJ54x2v1P7Dqi7X-Akjkm7w4AIEa4a2Xb6_6XiD8jU_m0bFg-pqAidRSoN7cbRNBueb9rWKa5uPPiH8G9Nzj0ikP6vB4_S0vyhg__rP2At3ZVh-t5LN5tEV2pl_mJ4-itnfEz1F5hnvPE6RTdCfmHHTp94wKVk39pHpW2v9_0egZoYZ-xsQ-k11009vCymdkSpyNKLXLCnn8y3Ceyq9PCj-Mg6a_X4m00]--></g></svg>